<svg fill="none" height="42" viewBox="0 0 42 42" width="42" xmlns="http://www.w3.org/2000/svg">
    <circle cx="21" cy="21" fill="white" r="20.5" stroke="#F1F1F5" />
    <path
        d="M23.625 14.875C23.5098 14.8743 23.3957 14.8964 23.2891 14.9399C23.1825 14.9835 23.0855 15.0476 23.0037 15.1287L17.7537 20.3787C17.5908 20.5427 17.4993 20.7644 17.4993 20.9956C17.4993 21.2268 17.5908 21.4485 17.7537 21.6125L23.0037 26.8625C23.1711 27.0058 23.3865 27.0807 23.6067 27.0722C23.8269 27.0637 24.0358 26.9724 24.1916 26.8166C24.3474 26.6608 24.4387 26.4519 24.4472 26.2316C24.4558 26.0114 24.3808 25.7961 24.2375 25.6287L19.6087 21L24.2375 16.3712C24.3604 16.2494 24.4443 16.0938 24.4788 15.9242C24.5133 15.7546 24.4967 15.5786 24.4311 15.4185C24.3655 15.2583 24.254 15.1212 24.1105 15.0245C23.967 14.9277 23.7981 14.8757 23.625 14.875Z"
        fill="#06161C" />
</svg>
