<svg xmlns="http://www.w3.org/2000/svg" viewBox="0 0 110 110" id="cart">
    <g>
        <circle cx="55" cy="55" r="50" fill="#e7efff"></circle>
        <path fill="#ffa100"
            d="M39 13a1 1 0 01-.55.89 9.77 9.77 0 00-4.92 5.67L33 21.32a1 1 0 01-1.9 0l-.58-1.76a9.77 9.77 0 00-4.92-5.67 1 1 0 010-1.78 9.77 9.77 0 004.92-5.67l.58-1.76a1 1 0 011.9 0l.58 1.76a9.77 9.77 0 004.92 5.67A1 1 0 0139 13zM105 82a1 1 0 01-.55.89 9.77 9.77 0 00-4.92 5.67L99 90.32a1 1 0 01-1.9 0l-.58-1.76a9.77 9.77 0 00-4.92-5.67 1 1 0 010-1.78 9.77 9.77 0 004.92-5.67l.58-1.76a1 1 0 011.9 0l.58 1.76a9.77 9.77 0 004.92 5.67A1 1 0 01105 82z"></path>
        <circle cx="10" cy="4" r="3" fill="#00c99f"></circle>
        <circle cx="106" cy="12" r="3" fill="#ffa100"></circle>
        <circle cx="100" cy="106" r="3" fill="#00c99f"></circle>
        <circle cx="11" cy="101" r="3" fill="#ff4d69"></circle>
        <path fill="#4e6aff"
            d="M95,40.23,85.09,82.37A6,6,0,0,1,79.24,87H26a1,1,0,0,1-1-.91l-4-46A1,1,0,0,1,22,39H94a1,1,0,0,1,.79.38A1,1,0,0,1,95,40.23Z"></path>
        <path fill="#8fa2ff"
            d="M31 85.88a1 1 0 01-.24.78A1 1 0 0130 87H25a4 4 0 00-4 4 3.35 3.35 0 00.07.71 47.62 47.62 0 01-4.95-5.29A10 10 0 0124.37 81L17.62 27H13.57a51.34 51.34 0 014.78-6h1a4 4 0 014 3.5zM84 98a3 3 0 01-3 3H35.38A50.13 50.13 0 0125 95H81a3 3 0 012.37 1.17A3 3 0 0184 98z"></path>
        <rect width="4" height="32" x="40" y="47" fill="#323fd4" rx="2"></rect>
        <rect width="4" height="32" x="56" y="47" fill="#323fd4" rx="2"></rect>
        <path fill="#ff4d69"
            d="M54,21H78a2,2,0,0,1,2,2V39a0,0,0,0,1,0,0H52a0,0,0,0,1,0,0V23A2,2,0,0,1,54,21Z"></path>
        <rect width="4" height="32" x="72" y="47" fill="#323fd4" rx="2"></rect>
        <path fill="#ffa100"
            d="M34,29H54a2,2,0,0,1,2,2v8a0,0,0,0,1,0,0H32a0,0,0,0,1,0,0V31A2,2,0,0,1,34,29Z"></path>
        <rect width="4" height="18" x="72" y="21" fill="#00c99f"></rect>
        <rect width="3" height="10" x="36" y="29" fill="#ff4d69"></rect>
    </g>
</svg>
